<svg width="100" height="24" viewBox="0 0 100 24" fill="none" xmlns="http://www.w3.org/2000/svg">
<path d="M56.025 3.87761C56.025 4.93426 55.2116 5.71906 54.0822 5.71906C52.9528 5.71906 52.1602 4.93426 52.1602 3.87761C52.1602 2.82095 52.9528 1.99512 54.0822 1.99512C55.2116 1.99512 56.025 2.86199 56.025 3.87761ZM52.414 6.93473H55.7556V17.3115H52.414V6.93986V6.93473Z" fill="white"/>
<path d="M38.7997 12.849H31.1166C31.386 14.0903 32.2461 14.8546 33.3703 14.8546C34.1422 14.8546 35.0385 14.6699 35.6032 13.6543L38.5666 14.2544C37.6703 16.4447 35.769 17.5013 33.3651 17.5013C30.3395 17.5013 27.832 15.2906 27.832 12.0026C27.832 8.71468 30.3395 6.50391 33.3858 6.50391C36.4321 6.50391 38.7324 8.61209 38.7946 12.0026V12.849H38.7997ZM31.1788 10.8229H35.4996C35.1887 9.70465 34.3494 9.19171 33.391 9.19171C32.4326 9.19171 31.4897 9.77133 31.1788 10.8229Z" fill="white"/>
<path d="M50.7829 17.1932H46.9439L44.9389 14.1925L42.9133 17.1932H39.0898L42.5351 12.1664L39.0898 6.7959H42.9133L44.9389 10.0172L46.9439 6.7959H50.7829L47.3169 12.1664L50.7829 17.1932Z" fill="white"/>
<path d="M65.4444 12.7874L68.5114 13.4491C67.9882 15.9112 65.776 17.5013 63.1649 17.5013C60.0305 17.5013 57.4453 15.2906 57.4453 12.0026C57.4453 8.71468 60.0357 6.50391 63.1649 6.50391C65.7138 6.50391 67.926 8.05299 68.5114 10.4946L65.3771 11.2383C65.087 9.97651 64.2269 9.39689 63.1649 9.39689C61.6625 9.39689 60.6574 10.4946 60.6574 12.0026C60.6574 13.5107 61.6573 14.6084 63.1649 14.6084C64.2321 14.6084 65.087 14.0493 65.4392 12.7874" fill="white"/>
<path d="M80.8924 12.0026C80.8924 15.2906 78.2605 17.4808 75.1521 17.4808C72.0436 17.4808 69.3496 15.2906 69.3496 12.0026C69.3496 8.71466 71.9814 6.54492 75.1521 6.54492C78.3227 6.54492 80.8924 8.73518 80.8924 12.0026ZM77.6751 12.0026C77.6751 10.392 76.4421 9.3148 75.1469 9.3148C73.8517 9.3148 72.5565 10.392 72.5565 12.0026C72.5565 13.6132 73.7895 14.6904 75.1469 14.6904C76.5043 14.6904 77.6751 13.6338 77.6751 12.0026Z" fill="white"/>
<path d="M100.001 10.6998V17.1936H96.68V11.4076C96.68 10.2279 95.908 9.48409 94.9237 9.48409C93.6907 9.48409 92.8773 10.3715 92.8773 12.1103V17.1936H89.5357V11.4076C89.5357 10.2279 88.7637 9.48409 87.7587 9.48409C86.5464 9.48409 85.7537 10.3715 85.7537 12.1103V17.1936H82.4121V6.8168H85.7537V7.76574C86.4635 6.98094 87.4893 6.50391 88.8466 6.50391C90.3076 6.50391 91.5614 7.12456 92.2711 8.26329C93.1052 7.18612 94.359 6.50391 95.9857 6.50391C98.2187 6.50391 99.9957 8.17609 99.9957 10.6998" fill="white"/>
<path d="M4.10317 11.8641C4.10317 7.50921 7.49658 4.89321 11.0972 4.89321C14.8844 4.89321 17.0292 7.20657 17.3763 10.3612C17.3763 10.3868 17.397 10.4022 17.423 10.4022H22.0597C22.0908 10.4022 22.1116 10.3765 22.1064 10.3458C21.2982 5.05736 16.6873 1 11.1179 1C4.99427 1 0.0259039 5.90371 0 11.9564C0 11.982 0.0207233 12.0077 0.051808 12.0077H4.07209C4.07209 12.0077 4.08763 12.0026 4.09799 11.9974C4.10836 11.9872 4.10836 11.9769 4.10836 11.9718C4.10836 11.9359 4.10836 11.9 4.10836 11.8641H4.10317Z" fill="#06BFBF"/>
<path d="M8.14513 10.4021H13.8802C13.8802 10.4021 13.8906 10.3969 13.8906 10.3918C13.6834 8.75041 12.7716 7.89893 11.2329 7.89893C9.69418 7.89893 8.53887 8.72989 8.13477 10.3918C8.13477 10.3969 8.13476 10.4072 8.14513 10.4072V10.4021Z" fill="#06BFBF"/>
<path d="M22.1279 12.803C21.6357 18.5171 16.7969 23.0002 10.9011 23.0002C5.66856 23.0002 1.2649 19.4661 0.000793401 14.6752C-0.00438737 14.6444 0.0163358 14.6137 0.0474205 14.6137H4.3112C4.3112 14.6137 4.34746 14.6239 4.35265 14.6393C5.47169 17.2912 8.13461 18.7685 11.3415 18.7685C13.1496 18.7685 15.1546 18.1889 16.7036 17.2143C16.7243 17.1989 16.7295 17.1732 16.7192 17.1476L15.424 14.8188C15.424 14.8188 15.3825 14.7881 15.3618 14.7983C14.1702 15.3882 13.1133 15.7165 11.8907 15.7165C9.66294 15.7165 8.2175 14.8445 7.8134 12.8953C7.8134 12.8953 7.8134 12.8902 7.81858 12.8902L22.0968 12.7773C22.1072 12.7773 22.1123 12.7825 22.1123 12.7927L22.1279 12.803Z" fill="#06BFBF"/>
</svg>
