<?xml version="1.0" encoding="utf-8"?>
<!-- Generator: Adobe Illustrator 16.0.0, SVG Export Plug-In . SVG Version: 6.00 Build 0)  -->
<!DOCTYPE svg PUBLIC "-//W3C//DTD SVG 1.1//EN" "http://www.w3.org/Graphics/SVG/1.1/DTD/svg11.dtd">
<svg version="1.1" id="Layer_1" xmlns="http://www.w3.org/2000/svg" xmlns:xlink="http://www.w3.org/1999/xlink" x="0px" y="0px"
	 width="500px" height="122.66px" viewBox="0 0 500 122.66" enable-background="new 0 0 500 122.66" xml:space="preserve">
<rect x="73.52" y="40.506" fill="#D9272E" width="21.481" height="77.019"/>
<rect x="73.52" y="4.553" fill="#D9272E" width="21.481" height="21.48"/>
<rect x="474.589" y="96.045" fill="#D9272E" width="21.481" height="21.48"/>
<path fill="#D9272E" d="M154.498,58.588c0,0-3.105-0.373-4.805-0.373c-3.606,0-6.565,0.599-8.863,1.803
	c-2.305,1.199-4.133,2.855-5.484,4.958c-1.357,2.104-2.304,4.578-2.854,7.434c-0.557,2.854-0.826,5.887-0.826,9.09v35.935h-21.034
	V40.635h21.034v10.966h0.447c2.304-4.206,5.361-7.287,9.163-9.237c3.808-1.956,8.215-2.928,13.222-2.928V58.588z"/>
<path fill="#D9272E" d="M380.228,58.588c0,0-3.106-0.373-4.806-0.373c-3.605,0-6.564,0.599-8.863,1.803
	c-2.305,1.199-4.132,2.855-5.483,4.958c-1.356,2.104-2.304,4.578-2.854,7.434c-0.557,2.854-0.825,5.887-0.825,9.09v35.935h-21.034
	V40.635h21.034v10.966h0.447c2.304-4.206,5.36-7.287,9.163-9.237c3.808-1.956,8.215-2.928,13.222-2.928V58.588z"/>
<path fill="#D9272E" d="M304.904,39.311c0-2.702-0.623-5.202-1.876-7.507c-1.254-2.304-2.879-4.107-4.886-5.409
	c-2.199-1.4-4.528-2.256-6.985-2.556c-2.452-0.299-5.031-0.452-7.733-0.452h-6.462v32.906h6.162c3.203,0,6.028-0.202,8.485-0.606
	c2.45-0.397,4.828-1.448,7.134-3.154C302.851,49.734,304.904,45.326,304.904,39.311 M329.093,39.311
	c0,6.315-1.052,11.773-3.153,16.376c-2.104,4.61-5.063,8.363-8.864,11.268c-3.509,2.908-7.764,5.061-12.771,6.461
	c-5.012,1.405-10.568,2.103-16.676,2.103h-10.667v41.916h-23.137V4.461h34.257c5.604,0,10.838,0.673,15.698,2.03
	c4.853,1.351,9.089,3.38,12.689,6.082c3.906,2.904,6.987,6.584,9.243,11.04C327.962,28.076,329.093,33.302,329.093,39.311"/>
<path fill="#D9272E" d="M443.779,79.635c0-2.988-0.495-5.745-1.491-8.267c-0.997-2.53-2.384-4.771-4.176-6.727
	c-1.791-1.957-3.9-3.48-6.338-4.562c-2.433-1.082-5.092-1.623-7.979-1.623c-2.78,0-5.391,0.541-7.823,1.623
	c-2.44,1.081-4.549,2.604-6.34,4.562c-1.79,1.956-3.21,4.196-4.248,6.727c-1.046,2.521-1.565,5.278-1.565,8.267
	c0,2.888,0.52,5.625,1.565,8.198c1.038,2.58,2.458,4.82,4.248,6.726c1.791,1.907,3.899,3.404,6.34,4.487
	c2.433,1.082,5.043,1.623,7.823,1.623c2.887,0,5.546-0.541,7.979-1.623c2.438-1.083,4.547-2.58,6.338-4.487
	c1.792-1.905,3.179-4.146,4.176-6.726C443.284,85.26,443.779,82.522,443.779,79.635 M465.261,79.635
	c0,5.877-1.076,11.27-3.229,16.164c-2.157,4.896-5.11,9.123-8.863,12.678c-3.754,3.556-8.167,6.317-13.223,8.274
	c-5.055,1.957-10.44,2.938-16.15,2.938c-5.702,0-11.063-0.98-16.07-2.938c-5.013-1.957-9.39-4.719-13.148-8.274
	c-3.754-3.555-6.737-7.782-8.937-12.678c-2.201-4.895-3.309-10.287-3.309-16.164c0-5.87,1.107-11.287,3.309-16.232
	c2.199-4.945,5.183-9.2,8.937-12.76c3.759-3.555,8.136-6.311,13.148-8.267c5.007-1.957,10.368-2.939,16.07-2.939
	c5.71,0,11.096,0.982,16.15,2.939c5.056,1.956,9.469,4.712,13.223,8.267c3.753,3.561,6.706,7.815,8.863,12.76
	C464.185,68.348,465.261,73.765,465.261,79.635"/>
<polygon fill="#D9272E" points="4.109,4.312 4.109,116.874 27.163,116.874 27.163,68.373 57.848,68.373 57.848,48.615 
	27.163,48.615 27.163,25.714 59.047,25.714 59.047,4.312 "/>
<path fill="#D9272E" d="M217.179,70.512c-0.807-4.738-5.442-14.684-19.231-14.684s-18.583,9.946-19.378,14.684H217.179z
	 M235.805,94.635c-2.305,8.041-6.736,14.226-13.296,18.555c-6.559,4.335-14.548,6.499-23.962,6.499
	c-6.107,0-11.749-0.98-16.915-2.938c-5.171-1.957-9.596-4.72-13.276-8.274c-3.681-3.555-6.554-7.783-8.62-12.678
	c-2.072-4.896-3.105-10.287-3.105-16.164c0-5.87,1.033-11.287,3.105-16.233c2.066-4.945,4.915-9.198,8.546-12.76
	c3.631-3.555,7.928-6.31,12.898-8.267c4.964-1.957,10.355-2.939,16.169-2.939c5.807,0,11.186,0.982,16.144,2.939
	c4.957,1.957,9.243,4.687,12.849,8.192c3.607,3.504,6.431,7.707,8.485,12.602c2.054,4.895,3.081,10.28,3.081,16.157
	c0,0.831,0,3.854-0.3,7.037h-59.49c0.304,4.336,3.906,9.845,5.709,11.751c1.804,1.912,3.931,3.403,6.382,4.486
	c2.451,1.082,5.086,1.623,7.886,1.623c8.417,0,13.974-3.146,16.676-9.432L235.805,94.635z"/>
</svg>
