<?xml version="1.0" encoding="UTF-8" standalone="no"?>
<svg
   xmlns:dc="http://purl.org/dc/elements/1.1/"
   xmlns:cc="http://creativecommons.org/ns#"
   xmlns:rdf="http://www.w3.org/1999/02/22-rdf-syntax-ns#"
   xmlns:svg="http://www.w3.org/2000/svg"
   xmlns="http://www.w3.org/2000/svg"
   xmlns:xlink="http://www.w3.org/1999/xlink"
   xmlns:sodipodi="http://sodipodi.sourceforge.net/DTD/sodipodi-0.dtd"
   xmlns:inkscape="http://www.inkscape.org/namespaces/inkscape"
   height="640mm"
   width="727.17706mm"
   version="1.1"
   viewBox="0 0 2576.6165 2267.7059"
   id="svg38459"
   inkscape:version="0.92.1 r15371"
   sodipodi:docname="SolarPanel-sun.svg">
  <metadata
     id="metadata38469">
    <rdf:RDF>
      <cc:Work
         rdf:about="">
        <dc:format>image/svg+xml</dc:format>
        <dc:type
           rdf:resource="http://purl.org/dc/dcmitype/StillImage" />
        <dc:title></dc:title>
      </cc:Work>
    </rdf:RDF>
  </metadata>
  <defs
     id="defs38467">
    <inkscape:perspective
       sodipodi:type="inkscape:persp3d"
       inkscape:vp_x="0 : 714.02613 : 1"
       inkscape:vp_y="0 : 999.9999 : 0"
       inkscape:vp_z="1763.401 : 714.02613 : 1"
       inkscape:persp3d-origin="881.7005 : 476.01743 : 1"
       id="perspective39027" />
    <linearGradient
       inkscape:collect="always"
       id="linearGradient39013">
      <stop
         style="stop-color:#8f8f8f;stop-opacity:1;"
         offset="0"
         id="stop39015" />
      <stop
         style="stop-color:#8f8f8f;stop-opacity:0;"
         offset="1"
         id="stop39017" />
    </linearGradient>
    <linearGradient
       inkscape:collect="always"
       xlink:href="#linearGradient39013"
       id="linearGradient39019"
       x1="944.27521"
       y1="-31.573429"
       x2="537.25055"
       y2="739.29102"
       gradientUnits="userSpaceOnUse" />
    <filter
       inkscape:collect="always"
       id="filter4730">
      <feGaussianBlur
         inkscape:collect="always"
         stdDeviation="2.597379"
         id="feGaussianBlur4732" />
    </filter>
    <filter
       inkscape:collect="always"
       id="filter17277">
      <feGaussianBlur
         inkscape:collect="always"
         stdDeviation="3.0162929"
         id="feGaussianBlur17279" />
    </filter>
    <filter
       inkscape:collect="always"
       x="-0.11135"
       y="-0.16817001"
       width="1.2227"
       height="1.3363"
       id="filter7785">
      <feGaussianBlur
         inkscape:collect="always"
         stdDeviation="2.1661097"
         id="feGaussianBlur7787" />
    </filter>
    <filter
       inkscape:collect="always"
       x="-0.15101001"
       y="-0.24047001"
       width="1.302"
       height="1.4809"
       id="filter7789">
      <feGaussianBlur
         inkscape:collect="always"
         stdDeviation="2.1661097"
         id="feGaussianBlur7791" />
    </filter>
    <radialGradient
       inkscape:collect="always"
       r="50.459"
       gradientTransform="translate(0,-2.3252e-5)"
       cx="480.07999"
       cy="234.64999"
       gradientUnits="userSpaceOnUse"
       fy="205.55"
       id="radialGradient8294">
      <stop
         offset="0"
         style="stop-color:#fff900"
         id="stop6094" />
      <stop
         offset="1"
         style="stop-color:#ea8f00"
         id="stop6096" />
    </radialGradient>
    <filter
       inkscape:collect="always"
       style="color-interpolation-filters:sRGB"
       id="filter5747"
       x="-0.88724399"
       width="2.774488"
       y="-0.57910734"
       height="2.1582148">
      <feGaussianBlur
         inkscape:collect="always"
         stdDeviation="143.92387"
         id="feGaussianBlur5749" />
    </filter>
  </defs>
  <sodipodi:namedview
     pagecolor="#ffffff"
     bordercolor="#666666"
     borderopacity="1"
     objecttolerance="10"
     gridtolerance="10"
     guidetolerance="10"
     inkscape:pageopacity="0"
     inkscape:pageshadow="2"
     inkscape:window-width="1366"
     inkscape:window-height="706"
     id="namedview38465"
     showgrid="false"
     inkscape:zoom="0.19152112"
     inkscape:cx="1529.6933"
     inkscape:cy="1347.4994"
     inkscape:window-x="-8"
     inkscape:window-y="-8"
     inkscape:window-maximized="1"
     inkscape:current-layer="g2995"
     fit-margin-top="0"
     fit-margin-left="0"
     fit-margin-right="0"
     fit-margin-bottom="0"
     inkscape:snap-global="false"
     showguides="false" />
  <g
     transform="translate(1021.4236,969.89847)"
     id="g38461">
    <g
       id="g5642"
       transform="matrix(-1,0,0,1,1342.0607,0)">
      <rect
         y="1177.8555"
         x="-213.12999"
         height="31.101158"
         width="1768.3229"
         id="rect39043"
         style="opacity:1;fill:#515151;fill-opacity:1;stroke:none;stroke-width:2;stroke-linecap:round;stroke-linejoin:round;stroke-miterlimit:4;stroke-dasharray:none;stroke-opacity:1" />
      <rect
         style="opacity:1;fill:#515151;fill-opacity:1;stroke:none;stroke-width:2;stroke-linecap:round;stroke-linejoin:round;stroke-miterlimit:4;stroke-dasharray:none;stroke-opacity:1"
         id="rect39025"
         width="33.322666"
         height="1175.1794"
         x="144.53329"
         y="113.75152" />
      <rect
         y="40.441643"
         x="-10.972486"
         height="1175.1794"
         width="33.322666"
         id="rect39023"
         style="opacity:1;fill:#515151;fill-opacity:1;stroke:none;stroke-width:2;stroke-linecap:round;stroke-linejoin:round;stroke-miterlimit:4;stroke-dasharray:none;stroke-opacity:1" />
      <path
         sodipodi:nodetypes="cccccc"
         inkscape:connector-curvature="0"
         id="path39021"
         d="M -57.624217,-126.1717 313.36814,1131.2037 1366.3644,1126.7607 999.81508,-128.39322 -42.073642,-130.61473 Z"
         style="fill:#000000;fill-opacity:1;fill-rule:evenodd;stroke:#000000;stroke-width:1px;stroke-linecap:butt;stroke-linejoin:miter;stroke-opacity:1" />
      <path
         id="path38463"
         d="m -211.57,1297.5 c -1.6327,-0.6552 -1.5617,1.6864 -1.5617,-51.531 0,-50.869 0,-50.71 1.2118,-51.361 0.3546,-0.1898 33.466,-0.2937 93.568,-0.2937 h 93.02 v -608.57 -608.57 l -15.178,-51.645 c -15.919,-54.167 -15.576,-52.864 -14.31,-54.286 1.3418,-1.5074 -6.1906,-1.4214 124.55,-1.4214 h 122.09 l 0.3121,0.975 c 0.1716,0.53625 15.508,55.987 34.081,123.22 18.573,67.237 33.842,122.49 33.931,122.77 0.1545,0.49941 -5.7981,0.525 -122.11,0.525 -67.249,0 -122.27,-0.0722 -122.27,-0.16035 0,-0.2094 -19.436,-66.358 -19.785,-67.34 -0.1567,-0.43953 -0.2772,236.29 -0.2911,571.87 l -0.024,572.62005 h 67.8 67.8 v -342.14005 -342.14 l -17.85,-60.738 c -9.8175,-33.406 -17.85,-60.882 -17.85,-61.059 0,-0.22737 34.886,-0.29889 119.76,-0.24546 l 119.76,0.0754 30.227,109.35 c 16.625,60.142 30.231,109.45 30.236,109.57 0.01,0.1238 -53.04,0.225 -117.88,0.225 h -117.89 l -0.307,-1.125 c -0.1689,-0.6187 -1.7863,-6.1199 -3.5943,-12.225 l -3.2872,-11.1 -0.017,305.77 -0.017,305.78001 h 698.2 698.2 l 0.6523,0.6943 0.6523,0.6944 v 50.131 c 0,53.373 0.059,50.879 -1.2215,51.541 -1.0047,0.5195 -1759.3,0.644 -1760.6,0.1246 z m 526.7,-169.72 c -2.9512,-1.5418 -0.052,7.732 -38.62,-123.51 l -35.352,-120.3 115.35,-0.075 c 63.444,-0.041 115.42,-0.01 115.51,0.077 0.14781,0.1479 67.101,242.18 67.449,243.82 l 0.17463,0.825 h -111.45 -111.45 l -1.6041,-0.838 z m 270.64,0.7158 c 0,-0.067 -15.188,-55.086 -33.75,-122.26 -18.562,-67.178 -33.75,-122.2 -33.75,-122.28 0,-0.075 54.106,-0.1369 120.24,-0.1369 h 120.24 l 33.711,122.03 c 18.541,67.114 33.772,122.19 33.847,122.4 0.1089,0.2996 -24.057,0.375 -120.2,0.375 -66.183,0 -120.33,-0.055 -120.33,-0.1222 z m 286.64,-0.2528 c -0.076,-0.2063 -15.261,-55.118 -33.744,-122.02 -18.483,-66.908 -33.667,-121.82 -33.742,-122.03 -0.1096,-0.2996 22.141,-0.3741 110.63,-0.3704 h 110.77 l 33.244,120.37 c 18.284,66.204 33.497,121.28 33.806,122.4 l 0.5617,2.025 h -110.69 c -88.278,0 -110.72,-0.076 -110.83,-0.375 z m 233.89,-121.65 c -18.545,-67.113 -33.778,-122.19 -33.85,-122.4 -0.1051,-0.3002 22.429,-0.3603 112.47,-0.3 l 112.6,0.075 35.319,120.15 c 19.425,66.082 35.322,120.53 35.327,120.99 0.011,1.2027 -0.7611,2.527 -1.7822,3.055 -0.782,0.4044 -13.432,0.4549 -113.62,0.4537 h -112.74 l -33.719,-122.02 z M 231.6,851.313 c -0.1184,-0.3712 -14.212,-48.296 -31.319,-106.5 l -31.103,-105.82 h 117.64 117.64 l 28.907,104.62 c 15.899,57.544 29.148,105.47 29.442,106.5 l 0.53445,1.875 h -115.76 -115.76 l -0.2153,-0.675 z m 248.4,-105.75 -29.406,-106.42 120.14,-0.075 c 66.076,-0.042 120.21,-0.01 120.29,0.078 0.11295,0.113 57.678,208.05 58.739,212.17 l 0.17349,0.675 h -120.27 -120.27 l -29.406,-106.42 z m 315.81,105.45 c -0.3867,-1.2176 -58.537,-211.71 -58.537,-211.89 0,-0.4956 221.37,-0.1037 221.52,0.3921 0.087,0.2888 13.263,47.978 29.281,105.98 16.018,57.998 29.195,105.69 29.283,105.98 0.1519,0.4994 -5.2507,0.525 -110.54,0.525 h -110.7 l -0.3097,-0.975 z m 267.71,0.6 c -0.1597,-0.4393 -58.209,-210.58 -58.508,-211.8 l -0.2019,-0.825 h 110.36 110.36 l 31.174,106.12 c 17.146,58.369 31.232,106.29 31.302,106.5 0.1026,0.2996 -22.451,0.375 -112.11,0.375 -89.52,0 -112.27,-0.076 -112.38,-0.375 z m -622.18,-246 c -0.249,-0.8662 -13.823,-49.972 -30.165,-109.12 -16.342,-59.152 -29.786,-107.79 -29.876,-108.07 -0.1554,-0.49941 5.7016,-0.525 120.11,-0.525 h 120.27 l 0.33162,1.125 c 0.1824,0.61875 13.644,49.32 29.916,108.22 16.271,58.905 29.771,107.74 30,108.52 l 0.41562,1.425 h -120.28 -120.28 l -0.4528,-1.575 z M 698.2,497.763 c -16.626,-60.184 -30.226,-109.53 -30.222,-109.65 0.005,-0.12375 49.797,-0.225 110.65,-0.225 h 110.64 l 30.113,108.97 c 16.562,59.936 30.172,109.28 30.244,109.65 l 0.1309,0.675 h -110.66 -110.66 l -30.23,-109.42 z m 297.69,109.28 c 0,-0.123 -57.545,-208.51 -59.833,-216.67 l -0.6937,-2.475 h 108.2 108.2 l 32.031,109 c 17.617,59.949 32.107,109.29 32.201,109.65 l 0.1706,0.6525 h -110.14 c -60.574,0 -110.14,-0.068 -110.14,-0.1503 z M 85.54,354.363 C 85.2659,353.41425 71.621,306.967 55.219,251.153 38.816,195.334 25.396,149.533 25.396,149.373 c 0,-0.18015 44.938,-0.25758 121.87,-0.21 l 121.87,0.0754 28.571,103.35 c 15.714,56.842 28.575,103.38 28.58,103.42 0,0.0412 -54.048,0.075 -120.12,0.075 H 86.037 l -0.4981,-1.725 z m 286.79,1.35 c -0.078,-0.20625 -12.9,-46.541 -28.492,-102.97 -15.592,-56.426 -28.425,-102.83 -28.518,-103.12 -0.162,-0.51027 4.9954,-0.53316 120.14,-0.53316 h 120.31 l 0.34125,1.275 c 0.18771,0.70125 13.018,47.153 28.512,103.23 15.494,56.073 28.17,102.07 28.17,102.22 0,0.4596 -240.29,0.35811 -240.46,-0.10158 z m 286.34,-0.9 c -0.18678,-0.70125 -13.017,-47.16 -28.512,-103.24 -15.495,-56.081 -28.172,-102.08 -28.172,-102.22 0,-0.14448 48.855,-0.25872 110.65,-0.25872 h 110.65 l 28.412,102.82 c 15.627,56.554 28.491,103.13 28.588,103.5 l 0.1763,0.675 h -110.72 -110.72 l -0.33954,-1.275 z m 267.48,-0.3 c -0.2479,-0.86625 -13.014,-47.07 -28.369,-102.67 -15.355,-55.605 -28.041,-101.47 -28.192,-101.92 l -0.2741,-0.825 h 106.13 106.13 l 30.216,102.82 c 16.619,56.554 30.295,103.13 30.391,103.5 l 0.1751,0.675 h -107.88 -107.88 l -0.4509,-1.575 z m -619.82,-237.6 c -0.1869,-0.50346 -68.242,-246.82 -68.242,-246.99 0,-0.0747 54.07,-0.1359 120.16,-0.1359 h 120.16 l 0.28593,0.675 c 0.33915,0.80072 68.101,246.1 68.101,246.53 0,0.47793 -240.28,0.39624 -240.46,-0.0817 z m 286.66,0.25353 c 0,-0.0668 -15.322,-55.574 -34.05,-123.35 -18.728,-67.776 -34.05,-123.41 -34.05,-123.63 0,-0.44529 220.93,-0.61974 221.2,-0.17467 0.15309,0.25057 68.298,246.78 68.298,247.08 0,0.10533 -49.815,0.19152 -110.7,0.19152 -60.885,0 -110.7,-0.0547 -110.7,-0.12147 z m 267.19,-1.4535 c -0.2497,-0.86625 -15.597,-56.38 -34.106,-123.36 -18.508,-66.984 -33.718,-121.96 -33.799,-122.17 -0.1897,-0.49446 201.87,-0.57459 203.65,-0.0808 1.4149,0.39302 2.8502,1.3856 3.9117,2.7052 0.7155,0.88944 72.253,242.72 72.253,244.25 0,0.13296 -47.578,0.24177 -105.73,0.24177 h -105.73 l -0.4539,-1.575 z"
         style="fill:#686867;fill-opacity:1;enable-background:new"
         inkscape:connector-curvature="0" />
      <path
         style="fill:url(#linearGradient39019);fill-opacity:1;enable-background:new"
         d="m -211.57,1297.5 c -1.6327,-0.6552 -1.5617,1.6864 -1.5617,-51.531 0,-50.869 0,-50.71 1.2118,-51.361 0.3546,-0.1898 33.466,-0.2937 93.568,-0.2937 h 93.02 v -608.57 -608.57 l -15.178,-51.645 c -15.919,-54.167 -15.576,-52.864 -14.31,-54.286 1.3418,-1.5074 -6.1906,-1.4214 124.55,-1.4214 h 122.09 l 0.3121,0.975 c 0.1716,0.53625 15.508,55.987 34.081,123.22 18.573,67.237 33.842,122.49 33.931,122.77 0.1545,0.49941 -5.7981,0.525 -122.11,0.525 -67.249,0 -122.27,-0.0722 -122.27,-0.16035 0,-0.2094 -19.436,-66.358 -19.785,-67.34 -0.1567,-0.43953 -0.2772,236.29 -0.2911,571.87 l -0.024,572.62005 h 67.8 67.8 v -342.14005 -342.14 l -17.85,-60.738 c -9.8175,-33.406 -17.85,-60.882 -17.85,-61.059 0,-0.22737 34.886,-0.29889 119.76,-0.24546 l 119.76,0.0754 30.227,109.35 c 16.625,60.142 30.231,109.45 30.236,109.57 0.01,0.1238 -53.04,0.225 -117.88,0.225 h -117.89 l -0.307,-1.125 c -0.1689,-0.6187 -1.7863,-6.1199 -3.5943,-12.225 l -3.2872,-11.1 -0.017,305.77 -0.017,305.78001 h 698.2 698.2 l 0.6523,0.6943 0.6523,0.6944 v 50.131 c 0,53.373 0.059,50.879 -1.2215,51.541 -1.0047,0.5195 -1759.3,0.644 -1760.6,0.1246 z m 526.7,-169.72 c -2.9512,-1.5418 -0.052,7.732 -38.62,-123.51 l -35.352,-120.3 115.35,-0.075 c 63.444,-0.041 115.42,-0.01 115.51,0.077 0.14781,0.1479 67.101,242.18 67.449,243.82 l 0.17463,0.825 h -111.45 -111.45 l -1.6041,-0.838 z m 270.64,0.7158 c 0,-0.067 -15.188,-55.086 -33.75,-122.26 -18.562,-67.178 -33.75,-122.2 -33.75,-122.28 0,-0.075 54.106,-0.1369 120.24,-0.1369 h 120.24 l 33.711,122.03 c 18.541,67.114 33.772,122.19 33.847,122.4 0.1089,0.2996 -24.057,0.375 -120.2,0.375 -66.183,0 -120.33,-0.055 -120.33,-0.1222 z m 286.64,-0.2528 c -0.076,-0.2063 -15.261,-55.118 -33.744,-122.02 -18.483,-66.908 -33.667,-121.82 -33.742,-122.03 -0.1096,-0.2996 22.141,-0.3741 110.63,-0.3704 h 110.77 l 33.244,120.37 c 18.284,66.204 33.497,121.28 33.806,122.4 l 0.5617,2.025 h -110.69 c -88.278,0 -110.72,-0.076 -110.83,-0.375 z m 233.89,-121.65 c -18.545,-67.113 -33.778,-122.19 -33.85,-122.4 -0.1051,-0.3002 22.429,-0.3603 112.47,-0.3 l 112.6,0.075 35.319,120.15 c 19.425,66.082 35.322,120.53 35.327,120.99 0.011,1.2027 -0.7611,2.527 -1.7822,3.055 -0.782,0.4044 -13.432,0.4549 -113.62,0.4537 h -112.74 l -33.719,-122.02 z M 231.6,851.313 c -0.1184,-0.3712 -14.212,-48.296 -31.319,-106.5 l -31.103,-105.82 h 117.64 117.64 l 28.907,104.62 c 15.899,57.544 29.148,105.47 29.442,106.5 l 0.53445,1.875 h -115.76 -115.76 l -0.2153,-0.675 z m 248.4,-105.75 -29.406,-106.42 120.14,-0.075 c 66.076,-0.042 120.21,-0.01 120.29,0.078 0.11295,0.113 57.678,208.05 58.739,212.17 l 0.17349,0.675 h -120.27 -120.27 l -29.406,-106.42 z m 315.81,105.45 c -0.3867,-1.2176 -58.537,-211.71 -58.537,-211.89 0,-0.4956 221.37,-0.1037 221.52,0.3921 0.087,0.2888 13.263,47.978 29.281,105.98 16.018,57.998 29.195,105.69 29.283,105.98 0.1519,0.4994 -5.2507,0.525 -110.54,0.525 h -110.7 l -0.3097,-0.975 z m 267.71,0.6 c -0.1597,-0.4393 -58.209,-210.58 -58.508,-211.8 l -0.2019,-0.825 h 110.36 110.36 l 31.174,106.12 c 17.146,58.369 31.232,106.29 31.302,106.5 0.1026,0.2996 -22.451,0.375 -112.11,0.375 -89.52,0 -112.27,-0.076 -112.38,-0.375 z m -622.18,-246 c -0.249,-0.8662 -13.823,-49.972 -30.165,-109.12 -16.342,-59.152 -29.786,-107.79 -29.876,-108.07 -0.1554,-0.49941 5.7016,-0.525 120.11,-0.525 h 120.27 l 0.33162,1.125 c 0.1824,0.61875 13.644,49.32 29.916,108.22 16.271,58.905 29.771,107.74 30,108.52 l 0.41562,1.425 h -120.28 -120.28 l -0.4528,-1.575 z M 698.2,497.763 c -16.626,-60.184 -30.226,-109.53 -30.222,-109.65 0.005,-0.12375 49.797,-0.225 110.65,-0.225 h 59.07892 51.56108 l 30.113,108.97 c 16.562,59.936 30.172,109.28 30.244,109.65 l 0.1309,0.675 h -110.66 -110.66 l -30.23,-109.42 z m 297.69,109.28 c 0,-0.123 -57.545,-208.51 -59.833,-216.67 l -0.6937,-2.475 h 108.2 108.2 l 32.031,109 c 17.617,59.949 32.107,109.29 32.201,109.65 l 0.1706,0.6525 h -110.14 c -60.574,0 -110.14,-0.068 -110.14,-0.1503 z M 85.54,354.363 C 85.2659,353.41425 71.621,306.967 55.219,251.153 38.816,195.334 25.396,149.533 25.396,149.373 c 0,-0.18015 44.938,-0.25758 121.87,-0.21 l 121.87,0.0754 28.571,103.35 c 15.714,56.842 28.575,103.38 28.58,103.42 0,0.0412 -54.048,0.075 -120.12,0.075 H 86.037 l -0.4981,-1.725 z m 286.79,1.35 c -0.078,-0.20625 -12.9,-46.541 -28.492,-102.97 -15.592,-56.426 -28.425,-102.83 -28.518,-103.12 -0.162,-0.51027 4.9954,-0.53316 120.14,-0.53316 h 120.31 l 0.34125,1.275 c 0.18771,0.70125 13.018,47.153 28.512,103.23 15.494,56.073 28.17,102.07 28.17,102.22 0,0.4596 -240.29,0.35811 -240.46,-0.10158 z m 286.34,-0.9 c -0.18678,-0.70125 -13.017,-47.16 -28.512,-103.24 -15.495,-56.081 -28.172,-102.08 -28.172,-102.22 0,-0.14448 48.855,-0.25872 110.65,-0.25872 h 110.65 l 28.412,102.82 c 15.627,56.554 28.491,103.13 28.588,103.5 l 0.1763,0.675 h -110.72 -110.72 l -0.33954,-1.275 z m 267.48,-0.3 c -0.2479,-0.86625 -13.014,-47.07 -28.369,-102.67 -15.355,-55.605 -28.041,-101.47 -28.192,-101.92 l -0.2741,-0.825 h 106.13 106.13 l 30.216,102.82 c 16.619,56.554 30.295,103.13 30.391,103.5 l 0.1751,0.675 h -107.88 -107.88 l -0.4509,-1.575 z m -619.82,-237.6 c -0.1869,-0.50346 -68.242,-246.82 -68.242,-246.99 0,-0.0747 54.07,-0.1359 120.16,-0.1359 h 120.16 l 0.28593,0.675 c 0.33915,0.80072 68.101,246.1 68.101,246.53 0,0.47793 -240.28,0.39624 -240.46,-0.0817 z m 286.66,0.25353 c 0,-0.0668 -15.322,-55.574 -34.05,-123.35 -18.728,-67.776 -34.05,-123.41 -34.05,-123.63 0,-0.44529 220.93,-0.61974 221.2,-0.17467 0.15309,0.25057 68.298,246.78 68.298,247.08 0,0.10533 -49.815,0.19152 -110.7,0.19152 -60.885,0 -110.7,-0.0547 -110.7,-0.12147 z m 267.19,-1.4535 c -0.2497,-0.86625 -15.597,-56.38 -34.106,-123.36 -18.508,-66.984 -33.718,-121.96 -33.799,-122.17 -0.1897,-0.49446 201.87,-0.57459 203.65,-0.0808 1.4149,0.39302 2.8502,1.3856 3.9117,2.7052 0.7155,0.88944 72.253,242.72 72.253,244.25 0,0.13296 -47.578,0.24177 -105.73,0.24177 h -105.73 l -0.4539,-1.575 z"
         id="path39011"
         inkscape:connector-curvature="0"
         sodipodi:nodetypes="cscscccccsccccsscscccccssscccsccccccccccsccccccccccccccccsscccsccccccccccsccccccccccccccccccccccccccccccccccccscccsccccccccccscccccscccccccccccscccccccccccccccccsccccsscccsccccccscccsccccssccccccccccccccccccccccssccscccsscsscccccccssccc" />
      <ellipse
         style="opacity:0.22600002;fill:#f0ae00;fill-opacity:1;stroke:none;stroke-width:3.75000715;stroke-linecap:round;stroke-linejoin:bevel;stroke-miterlimit:4;stroke-dasharray:none;stroke-dashoffset:1.21209455;stroke-opacity:1;filter:url(#filter5747)"
         id="path5713"
         cx="-674.65747"
         cy="447.33047"
         transform="matrix(-1,0,0,1,32.98776,-173.18574)"
         rx="194.65744"
         ry="298.23251" />
      <g
         transform="matrix(-1.2500024,0,0,-1.2500024,-2038.2373,919.7933)"
         inkscape:label="ink_ext_XXXXXX"
         id="g2993">
        <g
           transform="scale(0.1)"
           id="g2995">
          <path
             d="m -26432.055,-1969.2452 c -505.747,11.4207 -1012.942,-199.488 -1413.493,-587.8074 152.649,474.7262 415.394,892.6687 747.543,1189.336 -580.398,-52.4506 -1138.22,-423.0456 -1499.381,-996.4138 2.317,659.3073 187.142,1315.2696 515.349,1829.6306 -615.946,-358.23671 -1139.955,-961.521 -1477.95,-1701.2414 -100.647,801.1623 -9.519,1638.78293 258.711,2376.3853 -550.612,-601.29469 -943.176,-1427.4823 -1103.211,-2321.9723 -186.89,680.417 -373.695,1360.95911 -560.568,2041.22692 -117.212,-648.84785 -150.077,-1321.62092 -96.875,-1983.61702 -181.145,516.1399 -422.52,998.7636 -714,1427.60999 112.407,-640.08249 104.942,-1032.78789 19.308,-1679.37039 -288.818,694.0081 -680.186,1031.75 -1177.526,1503.72419 389.212,-678.46799 642.262,-1479.03749 730.729,-2307.99839 h 4591.798 c 272.526,474.1334 778.778,955.8471 1179.581,1210.6353"
             inkscape:connector-curvature="0"
             style="fill:#379c56;stroke-width:1.88865614"
             id="path3045" />
          <path
             d="m -31267.965,-1749.008 c -675.143,-161.271 -1297.857,-427.1803 -1809.285,-772.636 455.784,727.1172 967.458,1499.9934 1946.787,1909.25096 -1074.294,-132.23436 -2051.15,-606.28836 -2597.942,-1261.16556 -243.348,614.2292 -286.379,1266.13931 -125.383,1893.129 -546.297,-557.408 -1148.239,-1703.8676 -862.848,-2348.317 -460.236,763.6661 -927.395,907.2887 -1774.935,1129.2228 793.133,-393.9588 1133.178,-1198.4443 974.407,-1950.0704 h 2556.642 c 479.376,563.1536 899.078,1047.2582 1692.582,1400.6034"
             inkscape:connector-curvature="0"
             style="fill:#49be6e;stroke-width:2.05949903"
             id="path3051" />
          <path
             d="m -30212.014,-3149.5991 c 21.01,576.28 445.78,1131.4211 1124.482,1474.2421 -605.988,-80.72 -1293.03,-201.41 -1572.221,-577.5361 28.569,596.7901 199.227,1190.4591 503.209,1750.44495 -783.142,-305.0429 -1320.215,-886.59285 -1385.835,-1500.65085 -278.889,663.814 -683.688,1303.00395 -1200.965,1896.53175 179.879,-655.0588 171.112,-1333.89175 -25.848,-1986.57975 -426.874,364.791 -996,651.229 -1632.528,821.798 748.091,-429.22 1226.667,-1209.6121 1323.688,-1878.2701 h 2865.962"
             inkscape:connector-curvature="0"
             style="fill:#0c7771;stroke-width:2.45257974"
             id="path3053" />
          <g
             transform="matrix(10,0,0,10,-12838,7926)"
             inkscape:label="ink_ext_XXXXXX"
             id="g3685" />
        </g>
      </g>
    </g>
    <g
       transform="matrix(4.6386556,0,0,4.8144618,-2766.4977,-1618.9898)"
       inkscape:label="Layer 1"
       id="layer1">
      <g
         transform="matrix(0.95874,0,0,0.95874,19.811,9.6729)"
         id="g8273">
        <g
           transform="rotate(-1.1174529,480.00232,234.70928)"
           inkscape:transform-center-y="1.4234665"
           inkscape:transform-center-x="83.496727"
           id="g7904">
          <path
             d="m 421.29,251.45 c -16.19,-0.53 -39,-6.3 -49.46,-22.97 25.86,5.76 27.87,-9.71 47.77,-10.51"
             style="fill:#ed8224;fill-opacity:0.99993998"
             sodipodi:nodetypes="ccc"
             id="path7135"
             inkscape:connector-curvature="0" />
          <path
             d="m 418.09,245.76 c -12,-1.41 -27.26,-4.34 -38.91,-14.78 20.73,4.84 23.6,-9.59 38.84,-10.98"
             style="fill:#efbe52;fill-opacity:0.99695997;filter:url(#filter7785)"
             sodipodi:nodetypes="ccc"
             id="path7161"
             inkscape:connector-curvature="0" />
          <path
             d="m 418.41,240.05 c -11.26,-1.05 -16.14,-2.43 -28.69,-7.5 14.59,0.74 20.43,-11.32 28.64,-10.47"
             style="fill:#ffff00;filter:url(#filter7789)"
             sodipodi:nodetypes="ccc"
             id="path7163"
             inkscape:connector-curvature="0" />
        </g>
        <use
           x="0"
           y="0"
           width="1052.3622"
           height="744.09448"
           transform="matrix(0.86785,0.49682,-0.49682,0.86785,179.93,-207.58)"
           xlink:href="#g7904"
           inkscape:transform-center-x="68.724931"
           inkscape:transform-center-y="-35.282489"
           id="use7913" />
        <use
           x="0"
           y="0"
           width="1052.3622"
           height="744.09448"
           transform="matrix(0.86593,0.50016,-0.50016,0.86593,181.64,-208.73)"
           xlink:href="#use7913"
           inkscape:transform-center-x="36.455961"
           inkscape:transform-center-y="-68.570892"
           id="use7915" />
        <use
           x="0"
           y="0"
           width="1052.3622"
           height="744.09448"
           transform="matrix(0.8641,0.50333,-0.50333,0.8641,183.26,-209.82)"
           xlink:href="#use7915"
           inkscape:transform-center-x="1.4013646"
           inkscape:transform-center-y="-83.499375"
           id="use7917" />
        <use
           x="0"
           y="0"
           width="1052.3622"
           height="744.09448"
           transform="matrix(0.86153,0.50771,-0.50771,0.86153,185.52,-211.33)"
           xlink:href="#use7917"
           inkscape:transform-center-x="-36.265096"
           inkscape:transform-center-y="-68.066794"
           id="use7919" />
        <use
           x="0"
           y="0"
           width="1052.3622"
           height="744.09448"
           transform="matrix(0.86329,0.50471,-0.50471,0.86329,183.97,-210.3)"
           xlink:href="#use7919"
           inkscape:transform-center-x="-69.437496"
           inkscape:transform-center-y="-35.195795"
           id="use7921" />
        <use
           x="0"
           y="0"
           width="1052.3622"
           height="744.09448"
           transform="matrix(0.86783,0.49687,-0.49687,0.86783,179.96,-207.6)"
           xlink:href="#use7921"
           inkscape:transform-center-x="-83.571129"
           inkscape:transform-center-y="-0.7583852"
           id="use7923" />
        <use
           x="0"
           y="0"
           width="1052.3622"
           height="744.09448"
           transform="matrix(0.86656,0.49907,-0.49907,0.86656,181.08,-208.36)"
           xlink:href="#use7923"
           inkscape:transform-center-x="-68.027954"
           inkscape:transform-center-y="36.322494"
           id="use7925" />
        <use
           x="0"
           y="0"
           width="1052.3622"
           height="744.09448"
           transform="rotate(29.838689,480.18482,234.4479)"
           xlink:href="#use7925"
           inkscape:transform-center-x="-35.715054"
           inkscape:transform-center-y="69.08351"
           id="use7927" />
        <use
           x="0"
           y="0"
           width="1052.3622"
           height="744.09448"
           transform="matrix(0.86784,0.49685,-0.49685,0.86784,179.95,-207.59)"
           xlink:href="#use7927"
           inkscape:transform-center-x="-0.97523674"
           inkscape:transform-center-y="83.547547"
           id="use7929" />
        <use
           x="0"
           y="0"
           width="1052.3622"
           height="744.09448"
           transform="matrix(0.86696,0.49837,-0.49837,0.86696,180.72,-208.12)"
           xlink:href="#use7929"
           inkscape:transform-center-x="36.387489"
           inkscape:transform-center-y="67.983973"
           id="use7931" />
        <use
           x="0"
           y="0"
           width="1052.3622"
           height="744.09448"
           transform="matrix(0.87057,0.49205,-0.49205,0.87057,177.51,-205.93)"
           xlink:href="#use7931"
           inkscape:transform-center-x="69.172741"
           inkscape:transform-center-y="35.584785"
           id="use7933" />
        <path
           d="m 480.07,184.19 c 27.85,0 50.47,22.62 50.47,50.47 0,27.85 -22.62,50.45 -50.47,50.45 -27.85,0 -50.45,-22.6 -50.45,-50.45 0,-27.85 22.6,-50.47 50.45,-50.47 z"
           style="fill:url(#radialGradient8294);fill-opacity:0.99993998"
           id="path4743"
           inkscape:connector-curvature="0" />
        <path
           d="m 480.07,169.92 c -35.73,0 -64.73,29 -64.73,64.74 0,35.73 29,64.74 64.73,64.74 35.74,0 64.74,-29.01 64.74,-64.74 0,-35.74 -29,-64.74 -64.74,-64.74 z m 0,15.17 c 27.36,0 49.57,22.21 49.57,49.57 0,27.35 -22.21,49.55 -49.57,49.55 -27.35,0 -49.55,-22.2 -49.55,-49.55 0,-27.36 22.2,-49.57 49.55,-49.57 z"
           style="fill:#ed7323;fill-opacity:0.99993998"
           id="path3760"
           inkscape:connector-curvature="0" />
        <path
           d="m 480.07,174.08 c -33.44,0 -60.58,27.14 -60.58,60.58 0,33.44 27.14,60.58 60.58,60.58 33.44,0 60.58,-27.14 60.58,-60.58 0,-33.44 -27.14,-60.58 -60.58,-60.58 z m 0,5.45 c 30.42,0 55.13,24.71 55.13,55.13 0,30.42 -24.71,55.11 -55.13,55.11 -30.42,0 -55.11,-24.69 -55.11,-55.11 0,-30.42 24.69,-55.13 55.11,-55.13 z"
           style="fill:#f3d818;fill-opacity:0.99993998;filter:url(#filter17277)"
           id="path3767"
           inkscape:connector-curvature="0" />
        <path
           transform="matrix(0.64858,0,0,0.63567,644.72,-212.87)"
           style="fill:#fbef00;filter:url(#filter4730)"
           sodipodi:nodetypes="csssscscsc"
           d="m -155.9,708.69 c 0.67,-52.24 -42.84,-102.54 -99.69,-101.75 -48.93,0.68 -96.24,43.69 -96.24,94.76 1.63,-50.73 51.22,-87.93 99.83,-87.93 49.63,0 96.1,42.68 96.1,94.92 z m -10.27,10.21 c -7.03,40.15 -43.91,77.27 -86.44,77.27 -49.04,0 -90.15,-36.98 -90.24,-94.98 -2.47,57.54 34.88,99.56 90.85,99.93 53.51,0.35 82.19,-45.04 85.83,-82.22 z"
           id="path19323"
           inkscape:connector-curvature="0" />
      </g>
    </g>
  </g>
</svg>
