<svg xmlns="http://www.w3.org/2000/svg" width="196.508" height="45" viewBox="0 0 196.508 45"><g transform="translate(-55 -53)"><g transform="translate(55 53)"><path d="M6.255,42.948a1.727,1.727,0,0,0-.786-.557,2.525,2.525,0,0,0-.95-.164,3.646,3.646,0,0,0-.557.066,1.447,1.447,0,0,0-.524.2,1.041,1.041,0,0,0-.393.36.906.906,0,0,0-.164.524.888.888,0,0,0,.36.753,4.282,4.282,0,0,0,.95.459,10.64,10.64,0,0,0,1.212.36,5.022,5.022,0,0,1,1.212.524,3.156,3.156,0,0,1,.95.917,2.683,2.683,0,0,1,.36,1.539,3.513,3.513,0,0,1-.328,1.6,3.465,3.465,0,0,1-.917,1.146,3.946,3.946,0,0,1-1.343.655,6.546,6.546,0,0,1-1.6.229,5.685,5.685,0,0,1-2-.328A5.331,5.331,0,0,1,0,50.153l1.7-1.9a2.622,2.622,0,0,0,.95.753,2.482,2.482,0,0,0,1.179.262,3.609,3.609,0,0,0,.59-.066,2.787,2.787,0,0,0,.557-.2,1.041,1.041,0,0,0,.393-.36.893.893,0,0,0,.131-.524.934.934,0,0,0-.393-.786,3.231,3.231,0,0,0-.95-.491c-.393-.131-.786-.262-1.245-.393A5.343,5.343,0,0,1,1.67,45.9a2.926,2.926,0,0,1-.95-.852A2.459,2.459,0,0,1,.328,43.57a3.238,3.238,0,0,1,.36-1.539A3.417,3.417,0,0,1,1.6,40.917a4.333,4.333,0,0,1,1.343-.688A4.936,4.936,0,0,1,4.52,40a6.654,6.654,0,0,1,1.8.262,3.761,3.761,0,0,1,1.572.884l-1.638,1.8Zm5.568-.524H8.712V40.295h8.646v2.129H14.247v8.81H11.823v-8.81ZM18.7,40.295h7.434v2.227H21.092v2.031h4.749v2.227H21.092v2.227H26.4v2.227H18.7V40.295Zm9.662,0H32.62a7.982,7.982,0,0,1,1.572.164,3.379,3.379,0,0,1,1.31.557,2.411,2.411,0,0,1,.884,1.015,3.335,3.335,0,0,1,.328,1.6,3.183,3.183,0,0,1-.59,1.965,2.555,2.555,0,0,1-1.769,1.015l2.784,4.618H34.258l-2.293-4.389H30.786v4.389H28.362V40.295Zm2.391,4.52h1.408a4.836,4.836,0,0,0,.688-.033,2.117,2.117,0,0,0,.655-.131,1.023,1.023,0,0,0,.688-1.048,1.2,1.2,0,0,0-.164-.655,1.226,1.226,0,0,0-.426-.393,1.558,1.558,0,0,0-.59-.164,4.613,4.613,0,0,0-.655-.033H30.786v2.456Zm7.729-4.52h2.424v8.745h4.487v2.227H38.515V40.295Zm8.188,0h2.424V51.266H46.67V40.295Zm4.618,0h3.275l4.651,7.631h.033V40.295H61.67V51.266H58.526l-4.814-7.828h-.033v7.795H51.255V40.295ZM73.821,50.48a9.1,9.1,0,0,1-2.227.819,11.559,11.559,0,0,1-2.358.262,6.852,6.852,0,0,1-2.358-.393,5.419,5.419,0,0,1-1.867-1.146,5.2,5.2,0,0,1-1.245-1.834,6.926,6.926,0,0,1,0-4.782,5.513,5.513,0,0,1,1.245-1.834,5.419,5.419,0,0,1,1.867-1.146,6.852,6.852,0,0,1,2.358-.393,8.185,8.185,0,0,1,2.424.328,4.692,4.692,0,0,1,1.932,1.081l-1.7,1.867a3.814,3.814,0,0,0-1.114-.786,4.191,4.191,0,0,0-1.539-.262,3.851,3.851,0,0,0-1.408.262,3.128,3.128,0,0,0-1.081.721,3.532,3.532,0,0,0-.688,1.114,3.973,3.973,0,0,0-.229,1.408,3.853,3.853,0,0,0,.229,1.408,3.531,3.531,0,0,0,.688,1.114,2.731,2.731,0,0,0,1.081.721,3.851,3.851,0,0,0,1.408.262,5.656,5.656,0,0,0,1.376-.164,5.343,5.343,0,0,0,.917-.36V46.976H69.563V44.749h4.29V50.48ZM95.142,40.295h2.62L99.5,47.336h.033l2.293-7.041h2.26l2.26,7.205h.033l1.834-7.205h2.456l-3.21,10.972h-2.162l-2.424-7.6h-.033l-2.424,7.6H98.352l-3.21-10.972Zm16.572,0h2.424V51.266h-2.424V40.295Zm4.716,0h2.424v8.745h4.487v2.227h-6.878V40.295Zm13.657,2.653a1.727,1.727,0,0,0-.786-.557,2.525,2.525,0,0,0-.95-.164,3.646,3.646,0,0,0-.557.066,1.447,1.447,0,0,0-.524.2,1.041,1.041,0,0,0-.393.36.906.906,0,0,0-.164.524.888.888,0,0,0,.36.753,4.282,4.282,0,0,0,.95.459,10.639,10.639,0,0,0,1.212.36,5.021,5.021,0,0,1,1.212.524,3.156,3.156,0,0,1,.95.917,2.684,2.684,0,0,1,.36,1.539,3.513,3.513,0,0,1-.328,1.6,3.465,3.465,0,0,1-.917,1.146,3.946,3.946,0,0,1-1.343.655,6.546,6.546,0,0,1-1.6.229,5.685,5.685,0,0,1-2-.328,4.9,4.9,0,0,1-1.7-1.048l1.7-1.9a2.375,2.375,0,0,0,.95.753,2.482,2.482,0,0,0,1.179.262,3.609,3.609,0,0,0,.59-.066,2.787,2.787,0,0,0,.557-.2,1.041,1.041,0,0,0,.393-.36.893.893,0,0,0,.131-.524.934.934,0,0,0-.393-.786,3.231,3.231,0,0,0-.95-.491c-.393-.131-.786-.262-1.245-.393a5.343,5.343,0,0,1-1.245-.557,3.066,3.066,0,0,1-.95-.884,2.459,2.459,0,0,1-.393-1.474,3.238,3.238,0,0,1,.36-1.539,3.417,3.417,0,0,1,.917-1.114,4.333,4.333,0,0,1,1.343-.688A4.936,4.936,0,0,1,128.384,40a6.654,6.654,0,0,1,1.8.262,3.761,3.761,0,0,1,1.572.884l-1.67,1.8Zm2.849,2.817a6.217,6.217,0,0,1,.426-2.391,5.514,5.514,0,0,1,1.245-1.834,5.419,5.419,0,0,1,1.867-1.146,7.271,7.271,0,0,1,4.716,0,5.419,5.419,0,0,1,1.867,1.146,5.2,5.2,0,0,1,1.245,1.834,6.926,6.926,0,0,1,0,4.782,5.513,5.513,0,0,1-1.245,1.834,5.419,5.419,0,0,1-1.867,1.146,7.271,7.271,0,0,1-4.716,0,5.419,5.419,0,0,1-1.867-1.146,5.2,5.2,0,0,1-1.245-1.834,6.9,6.9,0,0,1-.426-2.391Zm2.522,0a3.853,3.853,0,0,0,.229,1.408,3.532,3.532,0,0,0,.688,1.114,2.731,2.731,0,0,0,1.081.721,3.916,3.916,0,0,0,2.817,0,3.129,3.129,0,0,0,1.081-.721,3.531,3.531,0,0,0,.688-1.114,4.44,4.44,0,0,0,0-2.817,3.2,3.2,0,0,0-.688-1.114,2.731,2.731,0,0,0-1.081-.721,3.916,3.916,0,0,0-2.817,0,3.128,3.128,0,0,0-1.081.721,3.532,3.532,0,0,0-.688,1.114,3.972,3.972,0,0,0-.229,1.408Zm10.972-5.469h3.275l4.651,7.631h.033V40.295h2.424V51.266h-3.144l-4.782-7.795h-.033v7.795H146.43V40.295Zm-56,10.939h-2l-1.343-1.441a5.3,5.3,0,0,1-1.474,1.277,3.752,3.752,0,0,1-1.867.459,4.705,4.705,0,0,1-1.6-.262,3.444,3.444,0,0,1-1.114-.721,2.585,2.585,0,0,1-.655-1.015,3.426,3.426,0,0,1-.2-1.179,2.715,2.715,0,0,1,.2-1.048,2.944,2.944,0,0,1,.557-.852,3.952,3.952,0,0,1,.786-.688,9.023,9.023,0,0,1,.95-.557,7.408,7.408,0,0,1-.917-1.146,2.455,2.455,0,0,1-.393-1.408,2.42,2.42,0,0,1,.229-1.114,2.27,2.27,0,0,1,.655-.819,2.492,2.492,0,0,1,.917-.491,4.159,4.159,0,0,1,1.114-.164,3.74,3.74,0,0,1,1.081.164,2.68,2.68,0,0,1,.917.459,2.144,2.144,0,0,1,.622.786,2.2,2.2,0,0,1,.229,1.081,2.349,2.349,0,0,1-.2.95,2.541,2.541,0,0,1-.524.786,6.549,6.549,0,0,1-.721.622c-.262.2-.557.328-.819.491l2.162,2.26L88.4,45.4h1.7l-2.129,3.275,2.456,2.555Zm-4.814-8.646a1.086,1.086,0,0,0-.36-.852,1.513,1.513,0,0,0-.95-.328,1.574,1.574,0,0,0-1.015.328,1.1,1.1,0,0,0-.426.95,1.358,1.358,0,0,0,.1.524,3.58,3.58,0,0,0,.262.491,2.256,2.256,0,0,0,.36.426,3.923,3.923,0,0,1,.36.393c.2-.1.393-.229.59-.328a3.575,3.575,0,0,0,.557-.426,3.306,3.306,0,0,0,.426-.524,3.927,3.927,0,0,0,.1-.655Zm-2.063,3.472c-.229.131-.426.262-.655.393a2.145,2.145,0,0,0-.59.491,1.944,1.944,0,0,0-.426.59,1.819,1.819,0,0,0-.164.753,1.942,1.942,0,0,0,.164.753,2.038,2.038,0,0,0,.458.622,2.809,2.809,0,0,0,.655.426,2.231,2.231,0,0,0,1.507,0,4.076,4.076,0,0,0,.655-.328,3.576,3.576,0,0,0,.557-.426,3.506,3.506,0,0,0,.459-.524l-2.62-2.751Z" transform="translate(0 -26.9)" fill="#fff"/><path d="M2.1,80.7H158.879v1.048H2.1Z" transform="translate(-1.412 -54.27)" fill="#fff"/><path d="M514.7,19.29l-4.29-3.6a4.153,4.153,0,0,1-1.114-2.489,4.187,4.187,0,0,1,.622-2.293l.1-.164L520.33,0l5.437,5.5-7.074,7.271c-.229.295-.491.622.229,1.376l.688.721L514.7,19.29Zm-3.865-7.828h0a2.976,2.976,0,0,0-.459,1.7,3.189,3.189,0,0,0,.819,1.8l3.5,2.882L518.07,14.8a1.86,1.86,0,0,1-.2-2.751,5.424,5.424,0,0,1,.426-.459l.917-.95h0L524.26,5.5l-3.93-3.963-9.5,9.924Z" transform="translate(-342.492)" fill="#fff"/><path d="M514.771,102.229,509.4,96.3l10.972-11.2,3.766,3.373a3.814,3.814,0,0,1,.917,1.7,2.474,2.474,0,0,1-.426,1.8l-.1.131-9.76,10.12Zm-3.865-5.9h0l3.865,4.323,8.941-9.269a1.4,1.4,0,0,0,.262-1.015,2.462,2.462,0,0,0-.655-1.146l-2.882-2.587-9.531,9.694Z" transform="translate(-342.566 -57.229)" fill="#fff"/><path d="M499.1,60.111,486.1,47.7l5.371-5.7,7.631,6.943,5.633-5.273,5.7,5.306,7.6-6.976,5.371,5.731L510.434,60.144l-5.7-5.83-5.633,5.8Zm5.633-7.369h0l5.7,5.862,11.43-10.873-3.9-4.192-7.533,6.91-5.7-5.273L499.1,50.45l-7.566-6.91-3.9,4.192,11.5,10.873,5.6-5.862Z" transform="translate(-326.897 -28.245)" fill="#fff"/></g></g></svg>